<?xml version="1.0" encoding="UTF-8" standalone="no"?>
<svg
   xmlns:dc="http://purl.org/dc/elements/1.1/"
   xmlns:cc="http://creativecommons.org/ns#"
   xmlns:rdf="http://www.w3.org/1999/02/22-rdf-syntax-ns#"
   xmlns:svg="http://www.w3.org/2000/svg"
   xmlns="http://www.w3.org/2000/svg"
   id="svg8"
   version="1.1"
   viewBox="0 0 164.53049 24.29273"
   height="24.29273mm"
   width="164.53049mm">
  <defs
     id="defs2" />
  <metadata
     id="metadata5">
    <rdf:RDF>
      <cc:Work
         rdf:about="">
        <dc:format>image/svg+xml</dc:format>
        <dc:type
           rdf:resource="http://purl.org/dc/dcmitype/StillImage" />
        <dc:title></dc:title>
      </cc:Work>
    </rdf:RDF>
  </metadata>
  <g
     transform="translate(-12.903936,-256.41415)"
     id="layer1">
    <path
       d="m 99.4065,280.701 9.62413,-12.10488 -9.61924,-12.18197 h -5.88015 l 9.63764,12.20526 -9.62129,12.08159 z m 2.43644,0 9.63984,-12.10488 -9.68126,-12.18197 h 5.73536 l 6.89913,8.73716 6.95792,-8.73716 h 5.3431 l -9.65719,12.18197 9.55838,12.10488 h -5.92807 l -6.62884,-8.39488 -6.68535,8.39488 z m 55.00878,0 h 4.24056 v -20.56415 c 0,0 4.22613,-0.0299 6.0859,-0.009 0.71343,0.008 1.88402,0.16315 2.44428,0.51656 0.6689,0.42194 1.21264,1.60721 1.21264,2.44342 0,0.81693 0.0545,2.18075 -1.30845,3.10756 -1.01601,0.73407 -2.23527,1.30845 -3.21661,1.58105 -0.98134,0.27259 -1.96267,0.5997 -1.96267,0.5997 l -1.10332,0.32244 1.10332,1.58572 7.52358,10.41705 h 5.56091 c 0.16356,0 -7.5781,-9.49023 -7.5781,-9.49023 l -0.95408,-1.19941 0.95408,-0.2726 c 0,0 0.12944,-0.0292 0.32711,-0.10904 0.84739,-0.34227 2.05321,-1.10067 2.75456,-1.78645 1.68536,-1.64789 2.42056,-2.69948 2.42056,-4.97387 0,-2.65989 -0.9477,-3.84135 -1.74044,-4.63409 -1.25535,-1.25535 -2.32446,-1.82116 -3.81631,-1.82116 h -12.94752 z m -18.69554,-24.28685 -10.47453,24.29272 4.41491,1e-5 8.57663,-19.73789 4.16556,9.40162 -5.68929,0.003 -1.58601,3.66054 8.89548,-3.7e-4 2.949,6.66734 h 4.1254 c -0.0386,0 -10.74219,-24.28685 -10.74219,-24.28685 z m -52.31459,0 h 4.24056 V 280.701 h -4.24056 z m -21.357007,0 h 18.350066 v 3.71049 l -7.247507,-0.0193 v 20.59564 h -3.976124 l -0.01363,-20.59843 h -7.112807 z m -16.229785,0 -10.474524,24.29272 4.41491,1e-5 8.576626,-19.73789 4.165561,9.40162 -5.689291,0.003 -1.586004,3.66054 8.895479,-3.7e-4 2.948995,6.66734 h 4.125398 c -0.03855,0 -10.742189,-24.28685 -10.742189,-24.28685 z M 12.903936,280.701 v -24.28685 h 3.932158 l 13.646896,18.65847 v -18.65847 h 4.009257 V 280.701 H 30.48299 L 16.836094,261.65702 V 280.701 Z"
       style="fill:currentColor;fill-rule:evenodd;stroke:none;stroke-width:0.5;stroke-linecap:butt;stroke-linejoin:miter;stroke-opacity:1"
       id="path932" />
  </g>
</svg>
